<?xml version="1.0" encoding="utf-8"?>
<!-- Generator: Adobe Illustrator 27.5.0, SVG Export Plug-In . SVG Version: 6.00 Build 0)  -->
<svg version="1.1" xmlns="http://www.w3.org/2000/svg" xmlns:xlink="http://www.w3.org/1999/xlink" x="0px" y="0px"
	 viewBox="0 0 750 500" style="enable-background:new 0 0 750 500;" xml:space="preserve">
<g id="BACKGROUND">
	<rect style="fill:#FFFFFF;" width="750" height="500"/>
</g>
<g id="OBJECTS">
	<g>
		<g>
			<g>
				<path style="fill:#CEE8F0;" d="M622.946,407.173c5.778-13.753,11.146-27.735,13.497-42.431
					c2.762-17.267,0.977-35.896-8.545-50.562c-5.211-8.027-12.547-14.625-16.929-23.133c-11.823-22.955,1.156-51.094-3.499-76.491
					c-5.256-28.674-32.813-48.993-61.309-55.143c-28.496-6.151-58.06-1.085-86.836,3.586c-28.776,4.67-58.635,8.884-86.738,1.135
					c-21.947-6.052-41.299-19.015-62.466-27.396c-21.167-8.382-46.746-11.586-65.561,1.232
					c-20.095,13.69-25.677,40.373-29.443,64.394c-3.766,24.021-8.871,50.671-28.553,64.948
					c-17.696,12.836-43.064,12.151-59.444,26.629c-18.543,16.392-17.933,46.918-5.407,68.263
					c11.219,19.119,29.569,32.603,48.142,44.969H622.946z"/>
				<path style="fill:#CEE8F0;" d="M191.034,238.855c3.707-6.222,6.256-13.287,6.283-20.53c0.028-7.243-2.676-14.658-8.096-19.463
					c-5.42-4.805-13.67-6.549-20.224-3.467c-5.716,2.689-9.331,8.322-13.545,13.027c-5.467,6.106-12.348,10.938-19.947,14.007
					c-6.725,2.717-14.396,4.331-19.14,9.817c-5.529,6.394-5.035,16.609-0.215,23.552c14.039,20.225,45.521,10.885,61.437-1.709
					C182.928,249.864,187.545,244.711,191.034,238.855z"/>
			</g>
		</g>
		<g>
			<path style="fill:#CEE8F0;" d="M644.121,136.4c4.333,0,8.216-2.72,9.667-6.803c0.432-1.217,0.773-2.323,0.974-3.186
				c0.817-3.495-0.478-7.766-3.795-9.135c-3.729-1.54-7.957,1.1-11.948,0.504c-5.243-0.783-7.992-6.546-9.57-11.607
				c-1.756-5.631-3.942-12.231-10.265-13.232c-2.92-0.463-5.881,0.531-8.188,2.379c-6.125,4.907-7.458,12.623-11.539,18.736
				c-3.032,4.543-8.569,8.264-13.756,6.554c-5.606-1.849-8.547-9.245-14.431-9.717c-5.462-0.438-9.164,5.341-11.194,10.431
				c-2.03,5.089-4.578,11.102-9.956,12.15c-5.312,1.035-10.551-3.577-15.844-2.453c-2.688,0.571-4.898,2.766-5.682,5.381H644.121z"
				/>
			<path style="fill:#CEE8F0;" d="M201.61,156.15c1.43,0,2.353-1.604,1.549-2.786c-0.006-0.009-0.012-0.017-0.018-0.026
				c-2.945-4.297-9.316-6.018-13.885-3.001c-0.756,0.499-1.602,0.868-2.494,1.027c-10.701,1.904-7.983-7.3-12.157-11.12
				c-3.233-2.959-8.842-1.198-12.234,0.478c-0.626,0.309-1.285,0.557-1.959,0.74c-12.213,3.31-12.623-9.424-18.773-15.482
				c-5.876-5.788-17.516-3.072-20.224,4.718c-2.036,5.857-0.309,14.082-5.815,16.934c-2.82,1.46-6.257,0.558-9.383,1.118
				c-2.736,0.49-5.162,2.243-6.662,4.574c-0.785,1.22,0.078,2.827,1.528,2.827H201.61z"/>
		</g>
	</g>
	<g>
		<g>
			<polygon style="fill:#36C2D9;" points="189.778,124.969 210.521,137.27 213.64,132.754 213.614,127.553 215.763,124.413 
				194.73,124.231 			"/>
			<polygon style="fill:#CEE8F0;" points="189.778,124.969 218.905,127.827 223.327,137.079 			"/>
			<polygon style="fill:#CEE8F0;" points="213.22,118.09 215.763,124.413 189.778,124.969 			"/>
		</g>
		<g>
			<polygon style="fill:#36C2D9;" points="632.833,192.233 609.125,196.65 607.75,191.337 609.563,186.462 608.625,182.775 
				628.438,189.837 			"/>
			<polygon style="fill:#CEE8F0;" points="632.833,192.233 604.5,184.9 597.167,192.066 			"/>
			<polygon style="fill:#CEE8F0;" points="613.188,177.712 608.625,182.775 632.833,192.233 			"/>
		</g>
	</g>
	<g>
		<g>
			<g>
				<path style="fill:#21B789;" d="M215.215,385.796c-4.654-8.969-4.883-20.105-0.604-29.259c3.369-7.207,9.427-13.525,9.926-21.466
					c0.388-6.175-2.796-12.094-6.964-16.667c-4.168-4.573-9.318-8.117-13.997-12.165c-8.24-7.129-15.148-16.065-18.62-26.393
					c-3.472-10.328-3.25-22.119,1.87-31.737c3.666-6.885,10.852-12.806,18.573-11.698c7.236,1.039,12.317,7.779,14.966,14.592
					c2.649,6.813,3.74,14.252,7.293,20.641c6.491,11.668,19.998,17.841,27.43,28.934c12.756,19.04,3.877,45.453,11.793,66.961
					c2.455,6.67,6.582,13.22,5.738,20.277c-1.655,13.835-18.73,18.609-30.442,17.468
					C231.575,404.25,219.983,394.987,215.215,385.796z"/>
				<g>
					<g>
						<path style="fill:#3BDBAA;" d="M232.869,401.089c-0.197,0-0.395-0.069-0.554-0.21c-35.025-31.05-43.355-88.557-43.435-89.135
							c-0.064-0.456,0.255-0.878,0.712-0.941c0.461-0.071,0.878,0.255,0.942,0.712c0.079,0.571,8.331,57.479,42.889,88.114
							c0.345,0.306,0.377,0.834,0.071,1.179C233.329,400.994,233.1,401.089,232.869,401.089z"/>
					</g>
					<g>
						<path style="fill:#3BDBAA;" d="M193.048,327.638c0,0-21.576-32.573-10.857-45.797
							C192.908,268.618,193.048,327.638,193.048,327.638z"/>
					</g>
					<g>
						<path style="fill:#3BDBAA;" d="M197.765,341.746c0,0-36.996-12.561-36.61-29.578S197.765,341.746,197.765,341.746z"/>
					</g>
					<g>
						<path style="fill:#3BDBAA;" d="M196.741,341.35c0,0,23.393-31.293,13.444-45.105
							C200.236,282.433,196.741,341.35,196.741,341.35z"/>
					</g>
					<g>
						<path style="fill:#3BDBAA;" d="M200.953,353.659c0,0,29.135-26.032,22.123-41.543
							C216.063,296.606,200.953,353.659,200.953,353.659z"/>
					</g>
					<g>
						<path style="fill:#3BDBAA;" d="M207.568,367.245c0,0,30.693-24.176,24.656-40.091
							C226.186,311.238,207.568,367.245,207.568,367.245z"/>
					</g>
					<g>
						<path style="fill:#3BDBAA;" d="M215.363,380.886c0,0,30.693-24.176,24.656-40.091
							C233.981,324.879,215.363,380.886,215.363,380.886z"/>
					</g>
					<g>
						<path style="fill:#3BDBAA;" d="M225.803,393.971c0,0,30.693-24.176,24.656-40.091
							C244.421,337.964,225.803,393.971,225.803,393.971z"/>
					</g>
					<g>
						<path style="fill:#3BDBAA;" d="M202.368,354.463c0,0-38.994-2.435-43.078-18.96
							C155.207,318.977,202.368,354.463,202.368,354.463z"/>
					</g>
					<g>
						<path style="fill:#3BDBAA;" d="M208.935,368.042c0,0-38.806,4.54-45.764-10.995
							C156.214,341.512,208.935,368.042,208.935,368.042z"/>
					</g>
					<g>
						<path style="fill:#3BDBAA;" d="M216.663,380.958c0,0-37.059,12.375-47.045-1.41
							C159.632,365.763,216.663,380.958,216.663,380.958z"/>
					</g>
					<g>
						<path style="fill:#3BDBAA;" d="M227.166,393.97c0,0-34.856,17.651-46.747,5.471
							C168.528,387.261,227.166,393.97,227.166,393.97z"/>
					</g>
				</g>
			</g>
			<g>
				<path style="fill:#3BDBAA;" d="M472.725,357.031c4.678-8.957,13.668-15.533,23.621-17.278
					c7.836-1.374,16.487-0.036,23.277-4.182c5.281-3.225,8.303-9.227,9.658-15.264c1.355-6.037,1.304-12.289,1.936-18.444
					c1.113-10.839,4.471-21.623,10.939-30.391c6.469-8.768,16.254-15.35,27.07-16.672c7.743-0.946,16.715,1.544,20.236,8.504
					c3.299,6.523,0.693,14.551-3.368,20.629c-4.062,6.078-9.529,11.238-12.724,17.813c-5.835,12.01-3.143,26.615-7.967,39.065
					c-8.279,21.37-35.008,29.248-48.085,48.069c-4.056,5.837-7.053,12.974-13.318,16.331c-12.282,6.58-25.987-4.668-31.77-14.916
					C466.993,381.018,467.932,366.209,472.725,357.031z"/>
				<g>
					<g>
						<g>
							<path style="fill:#21B789;" d="M495.747,400.628l-0.664-0.748c34.654-30.721,42.92-87.746,42.999-88.318l0.99,0.137
								C538.992,312.275,530.68,369.66,495.747,400.628z"/>
						</g>
						<path style="fill:#21B789;" d="M535.237,327.638c0,0,21.576-32.573,10.857-45.797
							C535.376,268.618,535.237,327.638,535.237,327.638z"/>
						<path style="fill:#21B789;" d="M530.52,341.746c0,0,36.996-12.561,36.61-29.578S530.52,341.746,530.52,341.746z"/>
						<path style="fill:#21B789;" d="M531.543,341.35c0,0-23.393-31.293-13.444-45.105
							C528.048,282.433,531.543,341.35,531.543,341.35z"/>
						<path style="fill:#21B789;" d="M527.332,353.659c0,0-29.135-26.032-22.123-41.543
							C512.221,296.606,527.332,353.659,527.332,353.659z"/>
						<path style="fill:#21B789;" d="M520.717,367.245c0,0-30.693-24.176-24.655-40.091
							C502.098,311.238,520.717,367.245,520.717,367.245z"/>
						<path style="fill:#21B789;" d="M512.922,380.886c0,0-30.693-24.176-24.656-40.091
							C494.303,324.879,512.922,380.886,512.922,380.886z"/>
						<path style="fill:#21B789;" d="M502.482,393.971c0,0-30.692-24.176-24.655-40.091
							C483.863,337.964,502.482,393.971,502.482,393.971z"/>
						<path style="fill:#21B789;" d="M525.916,354.463c0,0,38.994-2.435,43.078-18.96
							C573.078,318.977,525.916,354.463,525.916,354.463z"/>
						<path style="fill:#21B789;" d="M519.349,368.042c0,0,38.806,4.54,45.764-10.995
							C572.071,341.512,519.349,368.042,519.349,368.042z"/>
						<path style="fill:#21B789;" d="M511.621,380.958c0,0,37.059,12.375,47.045-1.41
							C568.653,365.763,511.621,380.958,511.621,380.958z"/>
						<path style="fill:#21B789;" d="M501.118,393.97c0,0,34.856,17.651,46.747,5.471
							C559.756,387.261,501.118,393.97,501.118,393.97z"/>
					</g>
				</g>
			</g>
		</g>
		<g>
			<path style="fill:#D68C34;" d="M509.926,238.026c-0.203-0.323-0.44-0.63-0.718-0.91L377.4,131.05
				c-4.778-3.845-11.592-3.834-16.358,0.025L229.987,237.212c-0.3,0.305-0.547,0.639-0.754,0.99
				c-0.863,1.153-1.378,2.581-1.378,4.126v157.95c0,2.122,0.96,4.016,2.466,5.284c1.198,1.004,2.748,1.612,4.43,1.612h269.802
				c1.682,0,3.232-0.608,4.43-1.612c1.506-1.268,2.466-3.162,2.466-5.284v-157.95C511.448,240.702,510.873,239.209,509.926,238.026z
				"/>
			<g>
				<path style="fill:#FFFFFF;" d="M474.238,388.091H265.065c-3.202,0-5.798-2.596-5.798-5.798V157.267
					c0-3.202,2.596-5.798,5.798-5.798h209.173c3.202,0,5.798,2.596,5.798,5.798v225.026
					C480.036,385.495,477.44,388.091,474.238,388.091z"/>
				<g>
					<rect x="273.75" y="165.173" style="fill:#CEE8F0;" width="55.667" height="5.333"/>
					<rect x="273.75" y="183.507" style="fill:#CEE8F0;" width="18.25" height="5.333"/>
					<rect x="294.5" y="183.507" style="fill:#CEE8F0;" width="49.75" height="5.333"/>
					<rect x="346" y="183.507" style="fill:#CEE8F0;" width="13.75" height="5.333"/>
					<rect x="273.75" y="193.507" style="fill:#CEE8F0;" width="40.25" height="5.333"/>
					<rect x="316" y="193.507" style="fill:#CEE8F0;" width="53.25" height="5.333"/>
					<rect x="371.5" y="193.507" style="fill:#CEE8F0;" width="70.5" height="5.333"/>
					<rect x="273.75" y="203.507" style="fill:#CEE8F0;" width="57.667" height="5.333"/>
					<rect x="273.75" y="223.507" style="fill:#CEE8F0;" width="27" height="5.333"/>
					<rect x="273.75" y="233.507" style="fill:#CEE8F0;" width="43.667" height="5.333"/>
					<rect x="320.417" y="233.507" style="fill:#CEE8F0;" width="25.667" height="5.333"/>
					<rect x="348.75" y="233.507" style="fill:#CEE8F0;" width="12" height="5.333"/>
					<rect x="273.75" y="243.507" style="fill:#CEE8F0;" width="17.667" height="5.333"/>
					<rect x="294.083" y="243.507" style="fill:#CEE8F0;" width="37.417" height="5.333"/>
					<rect x="334.083" y="243.507" style="fill:#CEE8F0;" width="20.167" height="5.333"/>
					<rect x="356.583" y="243.507" style="fill:#CEE8F0;" width="45.167" height="5.333"/>
					<rect x="273.75" y="253.507" style="fill:#CEE8F0;" width="26.75" height="5.333"/>
					<rect x="302.5" y="253.507" style="fill:#CEE8F0;" width="45.25" height="5.333"/>
					<rect x="350.5" y="253.507" style="fill:#CEE8F0;" width="38.5" height="5.333"/>
					<rect x="391.75" y="253.507" style="fill:#CEE8F0;" width="71" height="5.333"/>
					<rect x="273.75" y="263.507" style="fill:#CEE8F0;" width="43.5" height="5.333"/>
					<rect x="321.5" y="263.507" style="fill:#CEE8F0;" width="56.5" height="5.333"/>
					<rect x="382.25" y="263.507" style="fill:#CEE8F0;" width="80.25" height="5.333"/>
					<rect x="273.75" y="273.507" style="fill:#CEE8F0;" width="26.25" height="5.333"/>
					<rect x="302.25" y="273.507" style="fill:#CEE8F0;" width="26.25" height="5.333"/>
				</g>
			</g>
			<path style="fill:#FBAC4D;" d="M511.448,242.328v157.95c0,2.122-0.96,4.016-2.466,5.284c-1.198,1.004-2.748,1.612-4.43,1.612
				H234.75c-1.682,0-3.232-0.608-4.43-1.612c-1.506-1.268-2.466-3.162-2.466-5.284v-157.95c0-2.043,0.898-3.884,2.316-5.152
				l119.321,97.602l11.132,8.393c5.346,4.025,12.709,4.025,18.055,0l11.132-8.393l119.321-97.602
				C510.55,238.444,511.448,240.284,511.448,242.328z"/>
			<path style="fill:#FBBC71;" d="M508.982,405.562c-1.198,1.004-2.748,1.612-4.43,1.612H234.75c-1.682,0-3.232-0.608-4.43-1.612
				l133.672-88.01c3.434-2.261,7.884-2.261,11.318,0L508.982,405.562z"/>
			<g>
				
					<ellipse transform="matrix(0.6235 -0.7818 0.7818 0.6235 -0.1826 486.7774)" style="fill:#F16B5F;" cx="505.322" cy="243.578" rx="26.824" ry="26.824"/>
				<g>
					<path style="fill:#FFFFFF;" d="M510.804,230.872v25.412h-5.881v-20.692h-5.082v-4.719H510.804z"/>
				</g>
			</g>
		</g>
	</g>
	<g>
		<path style="fill:#FFFFFF;" d="M254.507,170.407L254.507,170.407c0-4.878-3.955-8.833-8.833-8.833l0,0
			c4.878,0,8.833-3.955,8.833-8.833l0,0c0,4.878,3.955,8.833,8.833,8.833l0,0C258.462,161.574,254.507,165.529,254.507,170.407z"/>
		<path style="fill:#FFFFFF;" d="M246.507,157.415L246.507,157.415c0-2.49-2.018-4.508-4.508-4.508l0,0
			c2.49,0,4.508-2.018,4.508-4.508l0,0c0,2.49,2.018,4.508,4.508,4.508l0,0C248.525,152.907,246.507,154.925,246.507,157.415z"/>
		<path style="fill:#FFFFFF;" d="M554.59,252.907L554.59,252.907c0-4.878-3.955-8.833-8.833-8.833l0,0
			c4.878,0,8.833-3.955,8.833-8.833l0,0c0,4.878,3.955,8.833,8.833,8.833l0,0C558.545,244.074,554.59,248.029,554.59,252.907z"/>
		<path style="fill:#FFFFFF;" d="M565.424,239.498L565.424,239.498c0-2.95-2.391-5.341-5.341-5.341l0,0
			c2.95,0,5.341-2.391,5.341-5.341l0,0c0,2.95,2.391,5.341,5.341,5.341l0,0C567.815,234.157,565.424,236.548,565.424,239.498z"/>
		<path style="fill:#FFFFFF;" d="M149.674,322.407L149.674,322.407c0-4.879-3.955-8.833-8.833-8.833l0,0
			c4.878,0,8.833-3.955,8.833-8.833l0,0c0,4.879,3.955,8.833,8.833,8.833l0,0C153.628,313.574,149.674,317.529,149.674,322.407z"/>
		<path style="fill:#FFFFFF;" d="M139.799,308.623L139.799,308.623c0-2.996-2.429-5.424-5.424-5.424l0,0
			c2.996,0,5.424-2.429,5.424-5.424l0,0c0,2.996,2.429,5.424,5.424,5.424l0,0C142.227,303.199,139.799,305.628,139.799,308.623z"/>
		<path style="fill:#FFFFFF;" d="M506.257,191.574L506.257,191.574c0-4.878-3.955-8.833-8.833-8.833l0,0
			c4.879,0,8.833-3.955,8.833-8.833l0,0c0,4.879,3.955,8.833,8.833,8.833l0,0C510.212,182.741,506.257,186.695,506.257,191.574z"/>
	</g>
	<g>
		<g>
			<g>
				<g>
					<path style="fill:#EBEBEB;" d="M237.75,394.9c0,0-0.63,0.06-1.67,0.13c-2.94,0.23-9.13,0.63-13.33,0.47
						c-1.35-0.05-2.49-0.16-3.25-0.35c-4-1-13.5-107-13.5-107l23.25-4.25c0,0,5,8.75,5.25,20.75S237.75,394.9,237.75,394.9z"/>
					
						<path style="fill:none;stroke:#0E293A;stroke-width:0.5;stroke-linecap:round;stroke-linejoin:round;stroke-miterlimit:10;" d="
						M227.332,345.564c1.102-0.574,2.001-1.527,2.51-2.66"/>
				</g>
				<g>
					<path style="fill:#FFFFFF;" d="M217.88,341.28c0.62,5.62-7.26,55.24-7.26,55.24c-0.69,0.02-1.51-0.02-2.42-0.1
						c-4.17-0.32-10.16-1.46-13.08-2.04c-1.08-0.22-1.74-0.36-1.74-0.36l3.62-46.74c0,0-12.88-47.5-13.38-56s4.13-14.63,4.13-14.63
						l39.25-1.37l2.62,10.74L210,292.78C210,292.78,217.25,335.65,217.88,341.28z"/>
					<g>
						
							<path style="fill:none;stroke:#0E293A;stroke-width:0.5;stroke-linecap:round;stroke-linejoin:round;stroke-miterlimit:10;" d="
							M210.334,347.57c0.989-0.14,1.911-0.697,2.497-1.506"/>
						
							<path style="fill:none;stroke:#0E293A;stroke-width:0.5;stroke-linecap:round;stroke-linejoin:round;stroke-miterlimit:10;" d="
							M210.333,293.4c0,0,7.083,44.25,7.542,47.875c0.458,3.625-3.042,28.625-3.042,28.625"/>
						
							<path style="fill:none;stroke:#0E293A;stroke-width:0.5;stroke-linecap:round;stroke-linejoin:round;stroke-miterlimit:10;" d="
							M187,285.066c0,0-1,8.667,0.833,15c1.833,6.333,11.5,48.333,11.5,48.333l-3,45.167"/>
					</g>
				</g>
			</g>
			<g>
				<path style="fill:#D48F65;" d="M223.61,406.629c-0.19,0.24-0.49,0.37-0.79,0.37h-26.41c-0.99,0-1.84-0.73-1.98-1.71
					c-0.17-1.18-0.27-3.9,0.46-6.37c0.03-0.62,0.11-2.2,0.23-4.54c2.92,0.58,8.91,1.72,13.08,2.04l-0.51,3.05l0.15,0.05
					c0,0,8.29,5.72,14.93,4.86c0.37-0.05,0.75,0.08,0.97,0.38C224.04,405.169,224.25,405.819,223.61,406.629z"/>
				<path style="fill:#F16B5F;" d="M223.187,407.035c0.383-0.005,0.689-0.304,0.712-0.686c0.048-0.785,0.109-1.688-0.364-2.148
					c-0.814-0.79-1.878-1.281-2.845-1.842c-1.166-0.677-2.368-1.285-3.637-1.741c-1.852-0.664-3.973-1.344-5.963-1.051
					c0.41-0.673,0.823-1.355,1.052-2.108c0.229-0.754,0.258-1.599-0.091-2.305c-0.437-0.883-1.392-1.419-2.298-1.73
					c-0.705-0.242-1.458-0.352-2.2-0.28c-2.692,0.257-3.401,2.389-4.197,4.279c-0.54,1.283-1.286,2.632-2.587,3.127
					c-1.581,0.6-3.346-0.31-4.574-1.473c0,0-1.444-0.864-2.069-0.052s-0.813,7.188,0.313,7.813
					C195.458,407.404,218.851,407.097,223.187,407.035z"/>
			</g>
			<g>
				<path style="fill:#D48F65;" d="M252.91,406.629c-0.15,0.24-0.43,0.37-0.73,0.37h-26.42c-0.99,0-1.93-0.73-2.21-1.71
					c-0.36-1.25-0.9-4.24-0.37-6.83l-0.43-2.96c4.2,0.16,10.39-0.24,13.33-0.47c0.04,2.86,0.06,4.49,0.06,4.49s9.09,5.72,15.61,4.86
					c0.37-0.05,0.77,0.08,1.03,0.38C253.13,405.169,253.44,405.819,252.91,406.629z"/>
				<path style="fill:#F16B5F;" d="M252.124,407.035c0.383-0.005,0.689-0.304,0.712-0.686c0.048-0.785,0.109-1.688-0.364-2.148
					c-0.814-0.79-1.878-1.281-2.845-1.842c-1.166-0.677-2.368-1.285-3.637-1.741c-1.852-0.664-3.973-1.344-5.963-1.051
					c0.41-0.673,0.823-1.355,1.052-2.108c0.229-0.754,0.258-1.599-0.091-2.305c-0.437-0.883-1.392-1.419-2.298-1.73
					c-0.705-0.242-1.458-0.352-2.2-0.28c-2.692,0.257-3.401,2.389-4.197,4.279c-0.54,1.283-1.286,2.632-2.587,3.127
					c-1.581,0.6-3.346-0.31-4.574-1.473c0,0-1.445-0.864-2.07-0.052s-0.813,7.188,0.313,7.813
					C224.395,407.404,247.788,407.097,252.124,407.035z"/>
			</g>
		</g>
		<g>
			<g>
				<path style="fill:#D48F65;" d="M291.935,224.801c-0.443-0.101-1.415-0.066-3.51,0.75c0,0,3.884-2.785,4.026-3.645
					c0.142-0.86-5.295,1.968-5.295,1.968s4.034-3.604,3.849-4.38s-5.217,2.663-5.217,2.663s3.944-3.957,3.577-4.232
					c-0.915-0.685-6.603,4.719-7.103,4.051c-0.443-0.592,0.342-2.374,0.898-3.212c0.117-0.176,0.063-0.401-0.129-0.495
					c-0.377-0.186-1.024-0.301-1.667,0.54c-0.891,1.167-2.661,3.581-3.471,7.14c-1.609,0.915-4.088,2.322-7.153,4.053
					c1.735,2.775,3.469,5.553,5.091,8.4c2.848-2.977,5.533-6.148,7.947-9.543l-0.062-0.066c2.784-0.832,6.764-2.194,8.329-3.569
					C292.207,225.083,292.145,224.849,291.935,224.801z"/>
				<g>
					<g>
						<path style="fill:#E2EDF0;" d="M229.75,245.275c0,0,16.625,10.125,20.625,10.375s30-18.25,34-23.375l-7.25-7.125
							l-25.25,14.875l-20.25-11.375L229.75,245.275z"/>
						<g>
							<path style="fill:#0E293A;" d="M238.37,232.439c-0.51,3.04-5.15,11.99-6.32,14.21c-0.54-0.32-1-0.59-1.37-0.82
								c1.22-2.33,5.81-11.2,6.28-14.18L238.37,232.439z"/>
							
								<line style="fill:none;stroke:#0E293A;stroke-width:0.5;stroke-linecap:round;stroke-linejoin:round;stroke-miterlimit:10;" x1="277.125" y1="225.15" x2="248.875" y2="241.775"/>
							
								<line style="fill:none;stroke:#0E293A;stroke-width:0.5;stroke-linecap:round;stroke-linejoin:round;stroke-miterlimit:10;" x1="249.125" y1="239.837" x2="251.875" y2="240.025"/>
							
								<line style="fill:none;stroke:#0E293A;stroke-width:0.5;stroke-linecap:round;stroke-linejoin:round;stroke-miterlimit:10;" x1="276.375" y1="226.9" x2="282.563" y2="233.087"/>
							
								<path style="fill:none;stroke:#0E293A;stroke-width:0.5;stroke-linecap:round;stroke-linejoin:round;stroke-miterlimit:10;" d="
								M249.5,253.066c0.5,0.056,1,0.111,1.5,0.167"/>
						</g>
					</g>
					<path style="fill:#F16B5F;" d="M212.625,229.9c0,0,7.5,11.75,17.75,16.5c0,0,6.75-12.625,6.625-15.25
						c0,0-15.125-10.625-17.875-10.375S211.875,223.025,212.625,229.9z"/>
				</g>
			</g>
			<g>
				<g>
					<path style="fill:#D48F65;" d="M199.753,217.36c-0.333,0.153-0.698,0.286-1.078,0.408c2.686,1.7,5.288,3.535,8.137,5.266
						c1.409,0.857,2.834,1.685,4.257,2.515c0.85-2.951,2.614-5.467,4.971-7.299c-0.184-0.18-0.357-0.376-0.526-0.581
						c-0.177-0.639-0.586-2.193-0.893-3.95c-0.273-1.573-0.466-3.299-0.329-4.656v-0.006c0.062-0.67,0.204-1.249,0.46-1.675
						l-15.218-8.557c0.011,0.051,0.017,0.096,0.028,0.148C199.803,200.385,201.639,211.481,199.753,217.36z"/>
					<path style="fill:#0E293A;" d="M214.621,213.719c-8.273,1.045-12.464-8.835-12.617-9.204c1.528,2.425,3.742,3.651,5.906,4.236
						c2.663,0.727,5.247,0.483,6.331,0.324c0.017-0.006,0.034-0.006,0.051-0.011C214.155,210.419,214.348,212.146,214.621,213.719z"
						/>
				</g>
				<g>
					<g>
						<path style="fill:#E2EDF0;" d="M185.833,277.65c0,0-1.417,5-1.833,6.25s22.3,4.564,27,5.167
							c5.28,0.677,15.509-0.901,19.163-1.517c0.678-0.114,1.057-0.841,0.769-1.465l-2.431-5.268L185.833,277.65z"/>
						<path style="fill:#E2EDF0;" d="M196.875,218.066l3-1.083c0,0,5.695,5.063,9.583,4.792c3.583-0.25,6.042-4.292,6.042-4.292
							l0.5,0.333l1.875,2.458c0,0-5.125,6.958-10.25,5.875C202.5,225.066,196.875,218.066,196.875,218.066z"/>
						<path style="fill:#0E293A;" d="M230.5,285.15c-3.24-0.03-34.81-0.35-45.74-3.78c0.24-0.81,0.48-1.65,0.68-2.33
							c10.13,3.27,39.59,3.65,43.94,3.68L230.5,285.15z"/>
					</g>
					<g>
						<path style="fill:#F16B5F;" d="M189.583,222.15c0,0,1.792-3.969,9.323-4.938c0,0,4.427,7.604,10.677,7.354
							s6.885-6.417,6.885-6.417s8.198,6.083,8.948,7c0.75,0.917,0.083,12.417-0.917,16.917s-0.25,23.5-0.25,23.5
							s4.833,16.583,5.667,18.333c0,0-33.917-0.167-44.667-3.75c0,0,3.833-14.917,5.583-19.75c1.75-4.833-4.083-27.333-3.583-31.5
							C187.75,224.733,189.583,222.15,189.583,222.15z"/>
						
							<path style="fill:none;stroke:#0E293A;stroke-width:0.5;stroke-linecap:round;stroke-linejoin:round;stroke-miterlimit:10;" d="
							M198.625,219.545c0,0,11.875,14.5,18.188,0.813"/>
					</g>
				</g>
			</g>
			<g>
				<g>
					<g>
						<g>
							<g>
								<path style="fill:#D48F65;" d="M213.983,275.703c4.112-0.765,8.205-1.789,12.207-3.164l-0.01-0.09l-0.73-5.45
									c0,0-0.02,0-0.07-0.01c-0.545-0.057-4.167-0.436-9.544-1.015C215.162,269.214,214.543,272.452,213.983,275.703z"/>
							</g>
							<path style="fill:#E2EDF0;" d="M183.125,246.9c0,0-2.625,22.375,1.5,27.125s40.75,1.5,40.75,1.5l-7-10.875l-20.625-1.25
								l0.5-16.625L183.125,246.9z"/>
						</g>
						<g>
							<path style="fill:#0E293A;" d="M198.18,249.1l-0.04,1.5l-15.26-1.28c0.05-0.6,0.1-1.1,0.14-1.49L198.18,249.1z"/>
							
								<polyline style="fill:none;stroke:#0E293A;stroke-width:0.5;stroke-linecap:round;stroke-linejoin:round;stroke-miterlimit:10;" points="
								195.375,260.712 197.75,263.4 192.313,263.337 							"/>
							
								<line style="fill:none;stroke:#0E293A;stroke-width:0.5;stroke-linecap:round;stroke-linejoin:round;stroke-miterlimit:10;" x1="220" y1="268.712" x2="223.938" y2="275.087"/>
							
								<path style="fill:none;stroke:#0E293A;stroke-width:0.5;stroke-linecap:round;stroke-linejoin:round;stroke-miterlimit:10;" d="
								M184.484,271.737c0.158,0.593,0.613,1.099,1.186,1.319"/>
						</g>
					</g>
					<path style="fill:#F16B5F;" d="M182.375,247.775c0,0-0.25-26.625,9.625-28.375s7.75,15.125,6.75,29.75L182.375,247.775z"/>
				</g>
				<g>
					<g>
						<g>
							<path style="fill:#0E293A;" d="M239.07,264.464h-39.028l-2.95-26.915c-0.088-0.803,0.541-1.505,1.349-1.505h36.298
								c0.692,0,1.274,0.521,1.349,1.209L239.07,264.464z"/>
							<path style="fill:#1D5578;" d="M240.171,264.464h-39.028l-2.95-26.915c-0.088-0.803,0.541-1.505,1.349-1.505h36.297
								c0.692,0,1.274,0.521,1.349,1.209L240.171,264.464z"/>
							<polygon style="fill:#FFFFFF;" points="239.896,261.962 237.297,238.245 198.269,238.245 200.868,261.962 							"/>
							<polygon style="fill:#0E293A;" points="257.167,268.066 200.482,268.066 200.001,264.464 256.686,264.464 							"/>
						</g>
						<g>
							<g>
								<path style="fill:#FBAC4D;" d="M229.752,244.688l1.026,12.358c0.014,0.166-0.049,0.314-0.159,0.413
									c-0.087,0.079-0.204,0.126-0.336,0.126h-21.11c-0.132,0-0.257-0.048-0.357-0.126c-0.126-0.099-0.214-0.247-0.227-0.413
									l-1.026-12.358c-0.013-0.16,0.045-0.304,0.148-0.403l9.97,7.637l0.926,0.657c0.444,0.315,1.02,0.315,1.413,0l0.816-0.657
									l8.702-7.637C229.656,244.384,229.739,244.528,229.752,244.688z"/>
								<path style="fill:#FBBC71;" d="M230.619,257.46c-0.087,0.079-0.204,0.126-0.336,0.126h-21.11
									c-0.132,0-0.257-0.048-0.357-0.126l9.887-6.886c0.254-0.177,0.602-0.177,0.886,0L230.619,257.46z"/>
								<path style="fill:#D68C34;" d="M207.653,244.352c0.081-0.118,0.173-0.126,0.305-0.126h21.334
									c0.132,0,0.271,0.035,0.329,0.146l-9.786,9.15c-0.254,0.177-0.602,0.177-0.886,0L207.653,244.352z"/>
							</g>
							<g>
								
									<ellipse transform="matrix(0.6922 -0.7217 0.7217 0.6922 -105.0333 241.0395)" style="fill:#F16B5F;" cx="230.072" cy="243.658" rx="2.722" ry="2.957"/>
								<g>
									<path style="fill:#FFFFFF;" d="M230.541,242.315l0.223,2.688h-0.622l-0.182-2.188h-0.538l-0.042-0.499H230.541z"/>
								</g>
							</g>
						</g>
					</g>
					<path style="fill:#D48F65;" d="M222.813,268.118c0,0,2.875-5.469,5.094-6.344c2.219-0.875-1.094,3.75-0.125,3.938
						c0.969,0.188,5.833-2.219,7.302-1.938c1.469,0.281-2.563,2.313-2.563,2.313s1.229-0.188,1.229,1.094
						c0,0,1.091,0.372,0.762,1.642c0,0,0.77,0.795,0.02,1.764c-0.75,0.969-8.625,2.406-10.094,2.219
						C222.969,272.618,222.813,268.118,222.813,268.118z"/>
				</g>
			</g>
		</g>
		<g>
			<g>
				<path style="fill:#D48F65;" d="M220.146,182.113c-1.987-5.11-11.357-7.098-17.887-1.419c-3.035,2.639-3.673,7.421-3.492,11.787
					c-0.158-0.077-0.3-0.137-0.392-0.16c-1.329-0.331-2.665,0.671-3.063,1.92c-0.317,0.995-0.103,2.12,0.466,2.997
					c0.473,0.729,1.24,1.408,2.059,1.72c0.206,0.078,1.124,0.23,1.772,0.174c0.624,2.872,2.088,5.525,4.351,7.405
					c2.854,2.371,6.507,3.322,10.144,2.567c2.827-0.587,7.012-2.399,8.05-5.333c0.27-0.764,0.295-1.589,0.305-2.399
					C222.534,195.188,222.418,187.956,220.146,182.113z"/>
				<g>
					<g>
						<g>
							<ellipse style="fill:#0E293A;" cx="218.545" cy="192.369" rx="0.838" ry="1.717"/>
						</g>
						<g>
							<path style="fill:#0E293A;" d="M212.121,192.369c0,0.948-0.375,1.716-0.839,1.716c-0.463,0-0.838-0.768-0.838-1.716
								s0.375-1.717,0.838-1.717C211.746,190.652,212.121,191.421,212.121,192.369z"/>
						</g>
					</g>
					<g>
						<path style="fill:#0E293A;" d="M218.062,197.562c-0.291,0.566-0.733,1.055-1.264,1.437c-0.53,0.383-1.193,0.628-1.877,0.623
							c-0.679-0.017-1.346-0.248-1.868-0.645c-0.274-0.179-0.488-0.43-0.724-0.644c-0.197-0.254-0.39-0.508-0.563-0.771
							c0.259,0.189,0.495,0.391,0.733,0.587c0.264,0.16,0.5,0.357,0.767,0.492c0.521,0.298,1.09,0.462,1.658,0.471
							c0.571,0.014,1.139-0.167,1.665-0.449C217.111,198.373,217.604,197.998,218.062,197.562z"/>
						<path style="fill:#0E293A;" d="M215.797,200.605c-0.239,0.213-0.567,0.289-0.883,0.299c-0.317-0.01-0.64-0.096-0.883-0.299
							c0.31,0.049,0.592,0.11,0.884,0.099C215.206,200.715,215.491,200.665,215.797,200.605z"/>
					</g>
					<g>
						<path style="fill:#0E293A;" d="M212.818,186.415c-0.391-0.347-0.834-0.46-1.299-0.481c-0.461-0.011-0.935,0.044-1.384,0.196
							c-0.453,0.138-0.87,0.393-1.218,0.698c-0.364,0.294-0.619,0.683-0.832,1.066c-0.108,0.194-0.038,0.438,0.156,0.546
							c0.155,0.086,0.342,0.059,0.466-0.055l0.034-0.031c0.273-0.251,0.535-0.486,0.828-0.658c0.281-0.19,0.598-0.294,0.914-0.375
							c0.319-0.074,0.651-0.114,0.99-0.096c0.335,0.011,0.691,0.029,1.059-0.061l0.106-0.026c0.226-0.055,0.364-0.283,0.309-0.508
							C212.927,186.544,212.88,186.47,212.818,186.415z"/>
						<path style="fill:#0E293A;" d="M217.009,186.415c0.391-0.347,0.834-0.46,1.299-0.481c0.461-0.011,0.935,0.044,1.384,0.196
							c0.453,0.138,0.87,0.393,1.218,0.698c0.364,0.294,0.619,0.683,0.832,1.066c0.108,0.194,0.038,0.438-0.156,0.546
							c-0.155,0.086-0.342,0.059-0.466-0.055l-0.034-0.031c-0.273-0.251-0.535-0.486-0.828-0.658
							c-0.281-0.19-0.598-0.294-0.914-0.375c-0.319-0.074-0.651-0.114-0.99-0.096c-0.334,0.011-0.691,0.029-1.059-0.061
							l-0.106-0.026c-0.225-0.055-0.363-0.283-0.308-0.508C216.901,186.544,216.947,186.47,217.009,186.415z"/>
					</g>
					<path style="fill:#0E293A;" d="M216.606,189.586c0.148,0.647,0.257,1.289,0.377,1.925c0.124,0.634,0.241,1.268,0.421,1.869
						c0.042,0.151,0.089,0.299,0.142,0.443c0.044,0.117,0.149,0.343,0.146,0.554c0.022,0.429-0.252,0.849-0.602,1.018
						c-0.357,0.2-0.769,0.169-1.094,0.058c-0.33-0.119-0.618-0.298-0.867-0.518c0.602,0.226,1.305,0.403,1.729,0.083
						c0.213-0.162,0.328-0.377,0.297-0.612c-0.011-0.12-0.049-0.197-0.126-0.381c-0.065-0.161-0.122-0.322-0.17-0.485
						c-0.184-0.654-0.278-1.314-0.315-1.975C216.507,190.905,216.52,190.244,216.606,189.586z"/>
					<path style="fill:#0E293A;" d="M196.292,195.009c-0.009-0.394,0.099-0.831,0.447-1.136c0.37-0.303,0.896-0.275,1.295-0.125
						c0.424,0.147,0.772,0.437,1.046,0.763c0.28,0.329,0.484,0.686,0.65,1.096c0.059,0.146-0.011,0.313-0.158,0.373
						c-0.111,0.045-0.233,0.016-0.311-0.064l-0.019-0.019c-0.279-0.283-0.63-0.586-0.961-0.68c-0.166-0.043-0.289-0.038-0.404,0.044
						c-0.119,0.084-0.21,0.262-0.288,0.445c-0.146,0.376-0.234,0.817,0.087,0.991c0.337,0.191,0.83,0.145,1.27,0.087
						c-0.416,0.182-0.875,0.336-1.396,0.187c-0.265-0.086-0.475-0.387-0.493-0.658c-0.025-0.271,0.013-0.518,0.081-0.76
						c0.072-0.239,0.171-0.492,0.406-0.701c0.238-0.214,0.612-0.264,0.878-0.181c0.543,0.164,0.91,0.477,1.251,0.842l-0.488,0.289
						c-0.263-0.657-0.694-1.341-1.318-1.649c-0.312-0.149-0.681-0.225-0.976-0.059C196.583,194.253,196.397,194.632,196.292,195.009
						z"/>
				</g>
			</g>
			<g>
				<path style="fill:#1E587D;" d="M206.917,185.316c0,0-1.994,6.219-3.25,7.833c-0.387,0.497-0.664,1.141-0.861,1.779
					c-0.21,0.681-1.147,0.765-1.496,0.144c-0.806-1.434-2.102-2.943-3.939-2.763c0,0-0.704-9.868,5.213-12.243L206.917,185.316z"/>
				<path style="fill:#0E293A;" d="M221.796,184.155c-2.951-1.042-6.176-1.136-9.173-0.268c-1.762,0.511-3.44,1.343-5.22,1.772
					c-1.78,0.429-3.996,0.791-5.155-0.747c-1.001-1.328-1.437-3.144-1.162-4.838c0.275-1.694,1.258-3.235,2.616-4.104
					c1.193-0.763,2.595-1.003,3.924-1.416c1.33-0.413,2.698-1.091,3.402-2.391c0.04,1.217-0.33,2.429-1.041,3.367
					c1.223-0.713,2.702-0.843,4.086-0.759c1.384,0.084,2.771,0.316,4.15,0.165c1.379-0.151,2.796-0.755,3.594-1.993
					c0.073,1.661-0.092,3.547-0.8,5.019C222.007,179.953,222.12,181.916,221.796,184.155z"/>
			</g>
		</g>
	</g>
	<g>
		<g>
			<path style="fill:#048FA6;" d="M662.304,407.173H87.696c-0.569,0-1.03-0.447-1.03-1c0-0.553,0.461-1,1.03-1h574.607
				c0.569,0,1.03,0.447,1.03,1C663.333,406.726,662.873,407.173,662.304,407.173z"/>
		</g>
	</g>
</g>
<g id="DESIGNED_BY_FREEPIK">
	<g id="XMLID_258_">
		<g id="XMLID_287_">
			<g id="XMLID_306_">
				<path id="XMLID_314_" style="fill:#A5B7C6;" d="M385.104,465.465c-0.433,0.443-0.804,0.932-1.108,1.453l-0.465-0.241
					c-0.067-0.297-0.35-0.502-0.659-0.466c-0.331,0.039-0.567,0.339-0.529,0.67c0.039,0.331,0.339,0.567,0.67,0.528
					c0.066-0.007,0.127-0.025,0.184-0.052l0.451,0.234c-0.251,0.554-0.433,1.139-0.539,1.743l0.747,0.132
					c0.229-1.306,0.85-2.507,1.792-3.473L385.104,465.465z"/>
				<path id="XMLID_313_" style="fill:#A5B7C6;" d="M390.591,463.164c-0.171,0-0.341,0.006-0.509,0.017l-0.074-0.626
					c0.188-0.149,0.296-0.389,0.266-0.645c-0.046-0.393-0.402-0.674-0.795-0.628c-0.394,0.046-0.675,0.402-0.628,0.796
					c0.03,0.254,0.189,0.461,0.404,0.563l0.073,0.624c-0.714,0.116-1.402,0.332-2.06,0.646l0.327,0.685
					c0.935-0.447,1.941-0.674,2.995-0.674c0.497,0,0.993,0.053,1.476,0.158l0.16-0.741
					C391.692,463.222,391.142,463.164,390.591,463.164z"/>
				<path id="XMLID_312_" style="fill:#A5B7C6;" d="M397.194,465.711c0.331-0.04,0.566-0.341,0.525-0.672
					c-0.04-0.331-0.341-0.566-0.672-0.525c-0.31,0.038-0.535,0.304-0.53,0.608l-0.416,0.363c-0.418-0.43-0.89-0.813-1.407-1.14
					l-0.404,0.642c1.135,0.715,2.021,1.727,2.564,2.925l0.69-0.313c-0.251-0.554-0.567-1.071-0.942-1.545l0.402-0.351
					C397.065,465.715,397.128,465.719,397.194,465.711z"/>
				<path id="XMLID_311_" style="fill:#A5B7C6;" d="M390.044,473.372c-0.386,0.023-0.775,0.035-1.157,0.035
					c-0.88,0-1.733-0.061-2.478-0.18c-0.391-0.062-0.846-0.154-1.271-0.292c1.047,1.861,3.069,3.125,5.389,3.125
					c2.855,0,5.263-1.916,5.949-4.503c-0.682,0.449-1.505,0.825-2.458,1.122C392.838,473.047,391.463,473.287,390.044,473.372z"/>
				<path id="XMLID_307_" style="fill:#A5B7C6;" d="M390.591,464.68c-3.352,0-6.079,2.666-6.079,5.943
					c0,0.425,0.046,0.849,0.137,1.261c0.674,0.483,2.706,0.891,5.348,0.731c2.88-0.174,5.297-0.958,6.672-2.159
					c-0.005-0.194-0.02-0.39-0.045-0.581C396.244,466.914,393.65,464.68,390.591,464.68z M388.432,471.195
					c-1.02,0-1.85-0.83-1.85-1.85c0-1.021,0.83-1.851,1.85-1.851c1.02,0,1.85,0.83,1.85,1.851
					C390.282,470.365,389.452,471.195,388.432,471.195z M393.169,470.287c-0.75,0-1.36-0.61-1.36-1.36s0.61-1.36,1.36-1.36
					s1.36,0.61,1.36,1.36S393.919,470.287,393.169,470.287z"/>
			</g>
			<path id="XMLID_304_" style="fill:#A5B7C6;" d="M406.595,466.547c-0.295-0.116-0.806-0.31-1.383-0.238
				c-0.551,0.069-0.844,0.341-0.844,1.007v0.866h2.229v1.717h-2.229v5.455h-1.932v-5.455h-1.339v-1.717h1.339v-0.889
				c0-1.68,0.896-2.782,2.568-2.782c0.643,0,1.157,0.121,1.59,0.308V466.547z"/>
			<path id="XMLID_302_" style="fill:#A5B7C6;" d="M411.297,469.878c-0.177-0.029-0.357-0.046-0.525-0.046
				c-0.896,0-1.51,0.548-1.51,1.613v3.908h-1.933v-7.172h1.873v0.784c0.451-0.673,1.14-0.977,2.02-0.977
				c0.414,0,0.848,0.128,1.095,0.337L411.297,469.878z"/>
			<path id="XMLID_299_" style="fill:#A5B7C6;" d="M418.965,471.757c0,0.222-0.016,0.488-0.037,0.651h-5.085
				c0.207,1.036,0.933,1.487,1.843,1.487c0.622,0,1.295-0.252,1.813-0.689l1.133,1.243c-0.814,0.748-1.851,1.089-3.057,1.089
				c-2.198,0-3.724-1.496-3.724-3.753c0-2.258,1.48-3.797,3.627-3.797C417.543,467.99,418.958,469.522,418.965,471.757z
				 M413.851,471.091h3.175c-0.178-0.918-0.732-1.437-1.561-1.437C414.554,469.655,414.021,470.203,413.851,471.091z"/>
			<path id="XMLID_296_" style="fill:#A5B7C6;" d="M426.619,471.757c0,0.222-0.016,0.488-0.037,0.651h-5.085
				c0.207,1.036,0.933,1.487,1.843,1.487c0.622,0,1.296-0.252,1.814-0.689l1.133,1.243c-0.814,0.748-1.851,1.089-3.058,1.089
				c-2.198,0-3.723-1.496-3.723-3.753c0-2.258,1.48-3.797,3.627-3.797C425.197,467.99,426.611,469.522,426.619,471.757z
				 M421.504,471.091h3.175c-0.178-0.918-0.733-1.437-1.562-1.437C422.208,469.655,421.674,470.203,421.504,471.091z"/>
			<path id="XMLID_293_" style="fill:#A5B7C6;" d="M434.964,471.764c0,2.154-1.495,3.775-3.472,3.775
				c-0.962,0-1.643-0.378-2.109-0.933v3.708h-1.925v-10.133h1.888v0.792c0.467-0.585,1.154-0.984,2.139-0.984
				C433.469,467.99,434.964,469.611,434.964,471.764z M429.287,471.764c0,1.133,0.748,1.977,1.844,1.977
				c1.14,0,1.85-0.881,1.85-1.977c0-1.095-0.71-1.976-1.85-1.976C430.035,469.789,429.287,470.632,429.287,471.764z"/>
			<path id="XMLID_290_" style="fill:#A5B7C6;" d="M438.068,465.836c0,0.696-0.541,1.229-1.236,1.229
				c-0.696,0-1.229-0.533-1.229-1.229c0-0.695,0.532-1.243,1.229-1.243C437.527,464.592,438.068,465.14,438.068,465.836z
				 M437.808,475.354h-1.932v-7.172h1.932V475.354z"/>
			<path id="XMLID_288_" style="fill:#A5B7C6;" d="M441.032,470.736l2.702-2.554h2.368l-3.478,3.375l3.501,3.797h-2.376
				l-2.717-2.901v2.901H439.1v-10.658h1.932V470.736z"/>
		</g>
		<g id="XMLID_259_">
			<path id="XMLID_284_" style="fill:#A5B7C6;" d="M309.412,475.29v-1.055c-0.527,0.718-1.391,1.23-2.387,1.23
				c-1.846,0-3.149-1.406-3.149-3.706c0-2.256,1.289-3.721,3.149-3.721c0.952,0,1.816,0.469,2.387,1.245v-3.765h1.099v9.771H309.412
				z M309.412,473.371v-3.208c-0.395-0.615-1.245-1.143-2.124-1.143c-1.42,0-2.27,1.172-2.27,2.739c0,1.567,0.85,2.725,2.27,2.725
				C308.167,474.484,309.017,473.986,309.412,473.371z"/>
			<path id="XMLID_281_" style="fill:#A5B7C6;" d="M311.932,471.745c0-2.051,1.465-3.706,3.486-3.706
				c2.139,0,3.398,1.67,3.398,3.794v0.278h-5.727c0.088,1.333,1.025,2.446,2.549,2.446c0.806,0,1.626-0.322,2.182-0.894l0.527,0.718
				c-0.703,0.703-1.655,1.084-2.812,1.084C313.44,475.465,311.932,473.957,311.932,471.745z M315.403,468.947
				c-1.509,0-2.256,1.274-2.314,2.358h4.644C317.718,470.25,317.015,468.947,315.403,468.947z"/>
			<path id="XMLID_279_" style="fill:#A5B7C6;" d="M319.607,474.352l0.571-0.791c0.469,0.542,1.362,1.011,2.329,1.011
				c1.084,0,1.67-0.513,1.67-1.216c0-1.714-4.38-0.659-4.38-3.281c0-1.099,0.952-2.036,2.636-2.036c1.202,0,2.051,0.454,2.623,1.025
				l-0.513,0.762c-0.424-0.513-1.201-0.894-2.109-0.894c-0.966,0-1.567,0.483-1.567,1.113c0,1.553,4.379,0.527,4.379,3.281
				c0,1.187-0.952,2.139-2.783,2.139C321.306,475.465,320.325,475.114,319.607,474.352z"/>
			<path id="XMLID_276_" style="fill:#A5B7C6;" d="M326.477,466.471c0-0.41,0.337-0.747,0.732-0.747c0.41,0,0.747,0.337,0.747,0.747
				c0,0.41-0.337,0.732-0.747,0.732C326.814,467.204,326.477,466.881,326.477,466.471z M326.667,475.29v-7.075h1.099v7.075H326.667z
				"/>
			<path id="XMLID_273_" style="fill:#A5B7C6;" d="M329.582,477.106l0.556-0.82c0.586,0.703,1.289,0.967,2.3,0.967
				c1.172,0,2.271-0.571,2.271-2.124v-1.011c-0.513,0.718-1.377,1.26-2.373,1.26c-1.846,0-3.149-1.377-3.149-3.662
				c0-2.271,1.289-3.677,3.149-3.677c0.952,0,1.802,0.469,2.373,1.245v-1.069h1.099v6.87c0,2.344-1.641,3.076-3.369,3.076
				C331.237,478.161,330.417,477.925,329.582,477.106z M334.708,473.253v-3.091c-0.381-0.615-1.23-1.143-2.109-1.143
				c-1.421,0-2.27,1.128-2.27,2.695c0,1.553,0.849,2.695,2.27,2.695C333.478,474.411,334.328,473.869,334.708,473.253z"/>
			<path id="XMLID_271_" style="fill:#A5B7C6;" d="M342.413,475.29v-4.629c0-1.245-0.63-1.641-1.582-1.641
				c-0.864,0-1.685,0.527-2.094,1.099v5.171h-1.099v-7.075h1.099v1.025c0.498-0.586,1.464-1.201,2.519-1.201
				c1.479,0,2.256,0.747,2.256,2.285v4.966H342.413z"/>
			<path id="XMLID_268_" style="fill:#A5B7C6;" d="M344.932,471.745c0-2.051,1.465-3.706,3.486-3.706
				c2.139,0,3.398,1.67,3.398,3.794v0.278h-5.727c0.088,1.333,1.025,2.446,2.548,2.446c0.806,0,1.626-0.322,2.183-0.894l0.527,0.718
				c-0.703,0.703-1.655,1.084-2.813,1.084C346.441,475.465,344.932,473.957,344.932,471.745z M348.404,468.947
				c-1.509,0-2.256,1.274-2.314,2.358h4.643C350.718,470.25,350.015,468.947,348.404,468.947z"/>
			<path id="XMLID_265_" style="fill:#A5B7C6;" d="M358.35,475.29v-1.055c-0.527,0.718-1.392,1.23-2.388,1.23
				c-1.845,0-3.149-1.406-3.149-3.706c0-2.256,1.289-3.721,3.149-3.721c0.952,0,1.817,0.469,2.388,1.245v-3.765h1.098v9.771H358.35z
				 M358.35,473.371v-3.208c-0.396-0.615-1.245-1.143-2.124-1.143c-1.421,0-2.271,1.172-2.271,2.739c0,1.567,0.85,2.725,2.271,2.725
				C357.105,474.484,357.954,473.986,358.35,473.371z"/>
			<path id="XMLID_262_" style="fill:#A5B7C6;" d="M364.692,475.29v-9.771h1.099v3.765c0.571-0.776,1.421-1.245,2.388-1.245
				c1.845,0,3.149,1.465,3.149,3.721c0,2.3-1.304,3.706-3.149,3.706c-0.996,0-1.86-0.513-2.388-1.23v1.055H364.692z M367.9,474.484
				c1.436,0,2.285-1.157,2.285-2.725c0-1.567-0.85-2.739-2.285-2.739c-0.864,0-1.729,0.527-2.109,1.143v3.208
				C366.171,473.986,367.036,474.484,367.9,474.484z"/>
			<path id="XMLID_260_" style="fill:#A5B7C6;" d="M372.528,477.062c0.161,0.073,0.425,0.117,0.6,0.117
				c0.483,0,0.806-0.161,1.055-0.747l0.469-1.069l-2.959-7.148h1.186l2.358,5.801l2.344-5.801h1.2l-3.544,8.511
				c-0.425,1.024-1.143,1.421-2.08,1.436c-0.234,0-0.601-0.044-0.806-0.104L372.528,477.062z"/>
		</g>
	</g>
</g>
</svg>
